<?xml version="1.0" encoding="UTF-8"?>
<svg id="Layer_2" data-name="Layer 2" xmlns="http://www.w3.org/2000/svg" viewBox="0 0 368.72 434.16">
  <defs>
    <style>
      .cls-1 {
        fill: none;
      }
    </style>
  </defs>
  <g id="Ebene_1" data-name="Ebene 1">
    <g>
      <path d="M360.7,367.31c-4-4.93-11.25-5.68-16.18-1.67-4.11,3.34-8.57,6.26-13.26,8.67-10.39,5.35-19.39,6.93-23.71,7.7-35.52,6.25-86.83-6.17-87.34-6.29-24.7-6.08-44.21-10.89-65.33-25.8-2.16-1.53-4.22-3.07-6.17-4.61,11.28-14.21,23.08-31.06,35.64-50.79,32.86-51.62,52.97-95.43,60.09-111.87,23.22-53.61,41.41-110.38,54.06-168.71,1.35-6.21-2.6-12.33-8.8-13.68-6.2-1.34-12.33,2.6-13.68,8.8-12.33,56.87-30.06,112.2-52.69,164.44-6.9,15.94-26.42,58.43-58.39,108.66-9.99,15.69-21.14,32.32-33.11,47.52-1.77-1.92-3.33-3.71-4.66-5.31-12.56-15.07-20.31-30.62-24.6-41.02-1.84-4.45-2.84-7.47-3.73-10.13-.12-.37-.25-.74-.37-1.1,3.26-12.81,6.27-24.16,9.01-34.48,2.41-9.08,4.69-17.65,6.74-25.76,14.94-58.84,25.7-121.94,31.97-187.55.6-6.32-4.03-11.94-10.35-12.54-6.31-.62-11.94,4.03-12.54,10.35-6.16,64.45-16.72,126.38-31.37,184.08-2.03,7.99-4.29,16.51-6.68,25.52-.91,3.42-1.85,6.96-2.81,10.62-6.55-8.73-15.21-16.55-26.2-16.55h-.16c-16.84.11-35.42,6.89-45.46,56.33-1.18,5.82-2.21,10.83-3.1,15.19-6,29.26-6.23,30.4-7.42,51.96-1.17,21.09,6.74,39.94,21.14,50.41,7.83,5.69,16.4,7.89,24.01,8.51-.74,4.02-1.47,8.04-2.18,12.05-1.11,6.25,3.06,12.22,9.31,13.33.68.12,1.36.18,2.02.18,5.47,0,10.32-3.92,11.31-9.49,1.07-6.03,2.18-12.09,3.31-18.16,21.35-4.87,42.2-18.59,64.78-43.27,2.46,1.96,5.06,3.92,7.8,5.86,24.67,17.41,47.11,22.94,73.1,29.34,2.29.56,56.58,13.69,96.82,6.61,5.01-.88,16.76-2.95,30.25-9.9,6.1-3.14,11.89-6.93,17.24-11.27,4.93-4,5.68-11.25,1.67-16.18ZM34.78,381.09c-9.49-6.9-12.27-20.29-11.7-30.53q1.1-19.87,6.99-48.61c.9-4.38,1.93-9.4,3.11-15.23,4.46-21.94,9.86-30.98,13.61-34.7,2.98-2.95,5.56-3.18,9.38-3.21.02,0,2.54.53,7.25,6.57,3.7,4.76,6.94,10.61,9.08,14.48.78,1.41,1.38,2.6,1.89,3.7-4.34,17.29-9.09,37.14-14.21,60.48-3.74,17.05-7.28,34.21-10.61,51.34-4.93-.08-10.36-1.05-14.8-4.28ZM74,380.37c2.75-13.82,5.64-27.66,8.65-41.41,2.33-10.63,4.58-20.52,6.76-29.78,4.98,9.26,11.56,19.67,20.1,29.92,2.02,2.43,4.48,5.22,7.37,8.24-13.62,14.79-28.05,26.79-42.87,33.03Z"/>
      <rect class="cls-1" y=".4" width="368.72" height="433.77"/>
    </g>
  </g>
</svg>