<?xml version="1.0" encoding="UTF-8"?>
<svg id="Layer_2" data-name="Layer 2" xmlns="http://www.w3.org/2000/svg" viewBox="0 0 368.72 433.77">
  <defs>
    <style>
      .cls-1 {
        fill: none;
      }
    </style>
  </defs>
  <g id="Ebene_1" data-name="Ebene 1">
    <g>
      <g>
        <path d="M366.44,303.39c1.59-6.06.38-10.37-3.59-12.82-2.05-1.26-7.47-3.42-13.46,3.78-1.61,1.94-3.4,4.54-5.46,7.55-4.09,5.96-14.95,21.81-20.54,20.6-1.97-.43-4.16-4.21-6.28-7.88-3.56-6.15-8.43-14.57-18.4-16.66-11.1-2.34-19.17,4.76-25.06,9.95-1.46,1.29-3.51,3.09-4.86,3.95-2.52-4.09-3.38-18.16-3.76-24.43-.81-13.25-1.34-22-9.04-24.34-2.69-.82-5.58-.5-8.15.9-6.92,3.76-14.42,14.22-41.54,107.79-17.79-4.74-33.31-10.22-49.82-21.88-2.16-1.52-4.22-3.07-6.17-4.61,11.28-14.21,23.08-31.06,35.64-50.79,32.87-51.64,52.97-95.44,60.09-111.87,23.22-53.61,41.41-110.37,54.06-168.71,1.35-6.21-2.6-12.33-8.8-13.68-6.22-1.35-12.33,2.6-13.68,8.8-12.33,56.87-30.06,112.2-52.69,164.44-6.9,15.93-26.4,58.41-58.39,108.66-9.99,15.69-21.14,32.32-33.11,47.52-1.77-1.92-3.33-3.71-4.66-5.31-12.56-15.07-20.31-30.62-24.6-41.02-1.84-4.45-2.84-7.47-3.73-10.13-.12-.37-.25-.74-.37-1.1,3.26-12.81,6.27-24.16,9.02-34.49,2.41-9.08,4.68-17.65,6.74-25.76,14.94-58.84,25.7-121.94,31.97-187.55.6-6.32-4.03-11.94-10.35-12.54-6.32-.6-11.94,4.03-12.54,10.35-6.16,64.45-16.72,126.38-31.37,184.08-2.03,7.99-4.29,16.5-6.68,25.52-.91,3.43-1.85,6.97-2.82,10.63-6.55-8.73-15.21-16.55-26.2-16.55-.05,0-.1,0-.16,0-16.84.11-35.42,6.89-45.46,56.33-1.18,5.82-2.21,10.83-3.1,15.19-6,29.26-6.23,30.4-7.42,51.96-1.17,21.09,6.74,39.94,21.14,50.41,7.83,5.69,16.4,7.89,24.01,8.51-.74,4.02-1.47,8.04-2.18,12.05-1.11,6.25,3.06,12.22,9.31,13.33.68.12,1.36.18,2.02.18,5.47,0,10.32-3.92,11.31-9.49,1.07-6.03,2.18-12.09,3.31-18.16,21.35-4.87,42.2-18.59,64.78-43.27,2.56,2.04,5.16,4,7.8,5.86,24.67,17.41,47.11,22.94,73.09,29.34,2.29.56,56.48,13.71,96.83,6.61,5.01-.88,16.75-2.95,30.25-9.9,6.09-3.14,11.89-6.93,17.23-11.27,4.93-4,5.68-11.25,1.68-16.18-4-4.93-11.25-5.68-16.18-1.68,0,0-.01,0-.02.01,7.43-24.01,12.66-39.26,16.06-49.14,2.21-6.44,3.55-10.33,4.28-13.11ZM36.38,381.09c-9.49-6.9-12.27-20.29-11.7-30.53q1.1-19.87,6.99-48.61c.9-4.38,1.93-9.4,3.11-15.23,4.46-21.94,9.86-30.98,13.61-34.7,2.98-2.95,5.56-3.18,9.38-3.21.02,0,2.54.53,7.25,6.57,3.7,4.76,6.94,10.61,9.08,14.48.78,1.41,1.38,2.6,1.89,3.7-4.34,17.29-9.09,37.14-14.21,60.48-3.74,17.04-7.28,34.21-10.61,51.33-4.93-.08-10.36-1.05-14.8-4.28ZM75.6,380.37c2.75-13.82,5.64-27.66,8.65-41.41,2.33-10.63,4.58-20.52,6.76-29.78,4.98,9.26,11.56,19.67,20.1,29.92,2.34,2.8,4.8,5.56,7.36,8.24-13.62,14.79-28.05,26.79-42.87,33.03ZM309.16,382c-35.37,6.23-86.37-6.06-87.32-6.29,13.67-47.1,22.14-71.94,27.38-84.87.96,15.21,2.51,31.63,13.66,36.35,8.85,3.74,16.08-2.62,21.35-7.26,4.8-4.22,8.17-6.94,11.2-6.3,2.78.58,4.82,3.8,7.84,9.02,3.5,6.05,7.86,13.58,16.75,15.5,7.5,1.62,14.26-1.54,20.18-6.61-3.78,11.46-8.55,26.4-14.42,45.96-7.29,2.85-13.32,3.92-16.62,4.5Z"/>
        <path d="M302.11,346.4c-1.48.48-2.68,1.55-3.36,3-.68,1.44-.77,3.1-.26,4.66s1.56,2.84,2.96,3.61c.88.48,1.82.72,2.77.72.58,0,1.15-.09,1.72-.27,1.48-.48,2.68-1.55,3.36-3,.68-1.44.77-3.1.26-4.66-1.05-3.23-4.39-5.06-7.44-4.06Z"/>
        <path d="M262.89,343.39c-1.41-.77-3-.93-4.48-.45-1.48.48-2.68,1.55-3.36,3-.68,1.44-.77,3.1-.26,4.66.86,2.63,3.23,4.33,5.73,4.33.57,0,1.14-.09,1.71-.27,1.48-.48,2.68-1.55,3.36-3,.68-1.44.77-3.1.26-4.66s-1.56-2.84-2.96-3.61Z"/>
      </g>
      <rect class="cls-1" width="368.72" height="433.77"/>
    </g>
  </g>
</svg>