<?xml version="1.0" encoding="UTF-8"?>
<svg id="Layer_2" data-name="Layer 2" xmlns="http://www.w3.org/2000/svg" viewBox="0 0 301.32 343.18">
  <defs>
    <style>
      .cls-1 {
        fill: none;
      }
    </style>
  </defs>
  <g id="Ebene_1" data-name="Ebene 1">
    <g>
      <g>
        <path d="M114.56,343.18c-.45,0-.91-.08-1.35-.24-2.08-.75-3.16-3.04-2.41-5.12,6.62-18.39,15.57-54.74,1.21-91.62-4.95-12.72-13.24-34.01-35-44.79-7.05-3.49-14.82-5.53-23.11-6.04-2.2-.14-3.88-2.04-3.74-4.24.14-2.21,2.03-3.87,4.24-3.74,9.35.58,18.16,2.89,26.16,6.86,24.53,12.16,33.88,36.16,38.9,49.05,15.31,39.31,5.86,77.79-1.14,97.24-.59,1.63-2.12,2.65-3.76,2.65Z"/>
        <path d="M207.24,323.24c-1.25,0-2.48-.58-3.26-1.68-5.36-7.51-17.41-27.81-13.6-53.93,2.83-19.46,14.62-43.19,34.55-52.33,2.56-1.17,4.94-1.97,7.05-2.67,4.6-1.54,7.09-2.47,8.84-5.22,3.26-5.13,1.97-13.91-3.73-25.4-.98-1.98-.17-4.38,1.81-5.36,1.98-.98,4.38-.17,5.36,1.81,7.11,14.34,8.23,25.53,3.31,33.25-3.36,5.28-8.29,6.92-13.05,8.52-2.01.67-4.09,1.37-6.25,2.36-17.2,7.88-27.45,28.89-29.97,46.21-3.38,23.25,7.41,41.4,12.2,48.13,1.28,1.8.86,4.3-.93,5.58-.7.5-1.52.74-2.32.74Z"/>
        <path d="M244.77,147.87c-.83,0-1.67-.26-2.38-.79-1.77-1.32-2.14-3.82-.82-5.6,19.65-26.43,34.34-44.6,44.91-55.53l.18-.18c6.32-6.52,7.05-9.55,6.56-10.94-.27-.75-1.4-2.18-6-3.33-11.28-2.81-24.25,5.91-39.27,16.02-2.23,1.5-4.5,3.03-6.83,4.56-14.83,9.77-30.76,18.93-47.33,27.22-1.97.99-4.38.19-5.37-1.79-.99-1.98-.19-4.38,1.79-5.37,16.29-8.15,31.94-17.15,46.51-26.74,2.3-1.52,4.56-3.03,6.76-4.52,16.6-11.17,30.94-20.81,45.67-17.14,2.33.58,9.44,2.35,11.6,8.4,2.76,7.73-5.02,15.77-8.35,19.2l-.17.18c-10.33,10.68-24.8,28.59-44.24,54.74-.79,1.06-1.99,1.61-3.21,1.61Z"/>
        <path d="M29.84,169.67c-.82,0-1.65-.04-2.48-.12-12.96-1.28-19.4-11.93-20.09-13.14-6.58-11.51-2.48-25.56,4.72-32.93,3.67-3.76,7.23-4.9,12.16-6.48,1.36-.44,2.9-.93,4.62-1.54,8.65-3.04,13.73-6.04,19.6-9.51,2.61-1.54,5.32-3.14,8.57-4.9,14.41-7.78,35.93-16.55,63.96-26.07,2.09-.71,4.36.41,5.07,2.5.71,2.09-.41,4.36-2.5,5.07-27.61,9.38-48.72,17.97-62.73,25.54-3.12,1.68-5.75,3.24-8.3,4.75-6.23,3.68-11.62,6.87-21.01,10.17-1.83.64-3.43,1.16-4.84,1.61-4.69,1.51-6.69,2.21-8.88,4.45-4.41,4.52-8.41,14.76-3.49,23.38.19.34,4.81,8.25,13.93,9.15,7.91.77,15.73-3.97,19.46-11.81.95-2,3.33-2.84,5.33-1.9,2,.95,2.84,3.33,1.9,5.33-4.79,10.08-14.62,16.46-24.99,16.46Z"/>
        <path d="M137.65,124.89c-.26,0-.52,0-.78,0-7.69-.17-13.65-2.69-17.24-7.3-6.11-7.84-3.11-18.47-.69-27.01h0c1.79-6.33,5.97-21.16,20.46-30.43,5.48-3.51,12.46-6.24,18.66-7.29,8.3-1.41,15.09.04,19.63,4.19,4.31,3.94,5.38,9.24,6.08,12.75,2.35,11.68-2.57,21.39-5.21,26.61-3.75,7.41-10.03,19.8-24.41,25.38-5.06,1.96-11.16,3.11-16.49,3.11ZM163.56,60.37c-5.59,0-12.77,1.97-19.86,6.51-11.93,7.64-15.41,19.95-17.08,25.87h0c-2.02,7.16-4.31,15.27-.69,19.92,4.74,6.08,17.66,4.63,25.31,1.66,11.52-4.47,16.73-14.74,20.17-21.54,2.36-4.66,6.31-12.46,4.51-21.42-.59-2.93-1.26-6.25-3.64-8.43-1.81-1.65-4.89-2.57-8.72-2.57ZM122.78,91.67h0,0Z"/>
        <path d="M192.84,115.08c-2.66,0-5.9-.59-10.6-2.25-4.54-1.6-7.45-6.45-8.2-13.65-1.46-13.96,5.62-38.85,22.7-49.26h0c10.89-6.64,25.34-7.91,35.97-3.17,2.29,1.02,6.12,2.73,8.75,6.73,4.74,7.2,3.2,17.69-4.57,31.17-8.47,14.71-17.45,24.67-36.01,28.88-.66.15-1.25.33-1.84.5-2,.58-3.88,1.03-6.2,1.03ZM218.52,51.92c-6.03,0-12.4,1.66-17.61,4.84h0c-14.08,8.58-20.12,30.04-18.91,41.6.47,4.52,1.86,6.56,2.91,6.93,7.05,2.49,9.08,1.89,11.9,1.07.68-.2,1.45-.42,2.3-.62,13.93-3.17,22.01-9.73,30.85-25.08,7.64-13.26,6.84-19.71,4.82-22.79-1.25-1.9-3.07-2.82-5.33-3.82-3.23-1.44-7.01-2.14-10.93-2.14ZM198.83,53.35h0,0Z"/>
        <g>
          <path d="M227.81,21.01l13.26-4.42c1.12-.37,1.1-1.97-.03-2.32-18.23-5.7-33.71-6.78-43.97-6.77-12.37.02-27.74.03-43.99,7.92-.27.13-.53.26-.79.39-7.42-2-14.89-3.26-24.72-2.15-18.37,2.07-30.94,10.81-45.75,21.11-4,2.79-8.88,6.45-14.22,11.14-.23.2-.53.31-.83.3-11.35-.34-22.26.7-32.46,7.92-7.34,5.2-16.61,15.21-21.53,36.62-.21.92.68,1.71,1.57,1.42l.51-.17c-.04.21-.09.42-.13.62-.1.46-.45.82-.91.93-.96.22-1.92.44-2.9.66-4.17.94-4.58,6.72-.57,8.23h0c.14.05.29.08.45.08.44,0-.46,5.19-.04,5.18.71-.01,2.61-4.61,2.56-3.9,0,.01,0,.02,0,.04-.06.96.96,1.61,1.8,1.14l4.58-2.53c.17-.09-3.46,9.56-3.27,9.56,48.94-1.83,73.01-23.9,82.11-35.88,1.57-2.06,4.69-6.6,9.54-12.4.14-.17.33-.3.54-.37l69.17-24.14c.11-.04.23-.06.35-.07,23.59-1.06,41.15,2.21,42.69-3.49.6-2.23-1.44-5.09-4.69-7.86-.72-.61-.52-1.78.37-2.09l21.91-7.65c-3.08.99-6.65,2.02-10.61,2.95Z"/>
          <path d="M12.72,119.64l-2.36-3.21c-.31-.42-.56-.82-.77-1.21l-2.06.04-2.32-2.47c-1.87-2.01-2.15-4.19-2.06-6.37-2.15-2.32-3.31-5.46-3.08-8.8.27-3.9,2.37-7.28,5.55-9.24,4.37-18.44,12.56-32.02,24.35-40.37,11.53-8.15,23.79-9.46,34.54-9.34,4.19-3.58,8.56-6.95,13.02-10.05,14.88-10.35,28.94-20.13,49.19-22.41,10.2-1.15,18.21.07,24.78,1.66C168.69.04,185.02.02,197.06,0c15.56-.02,31.06,2.37,46.22,7.11,3.62,1.13,6.08,4.44,6.12,8.24.04,3.8-2.36,7.15-5.96,8.35l-2.73.91.18.53-13.56,4.73c1.18,2.59,1.42,5.18.73,7.74-2.55,9.42-13.46,9.22-28.57,8.93-5.98-.11-12.72-.24-20.12.06l-66.65,23.26c-2.98,3.65-5.22,6.71-6.76,8.81-.59.8-1.08,1.47-1.47,1.99-8.36,11-33.64,36.8-87.8,38.83l-3.98.15ZM21.98,94.53l2.58,2.2c2.61,2.23,2.81,4.93,2.48,6.98,40.21-4.39,59.02-23.57,65.52-32.13.35-.46.79-1.06,1.31-1.77,1.83-2.51,4.6-6.3,8.45-10.9,1.01-1.21,2.33-2.13,3.82-2.65l69.17-24.14c.81-.28,1.64-.44,2.49-.48,8.23-.37,15.85-.23,21.98-.11,3.21.06,6.83.13,9.83.07-1.21-1.86-1.69-4.14-1.27-6.37.57-3.06,2.75-5.6,5.69-6.62l5.24-1.83c-7.37-1.2-14.8-1.79-22.19-1.79-12.2.02-26.02.03-40.72,7.17l-3.26,1.63-2.75-.74c-6.93-1.87-13.31-2.91-21.93-1.94-16.48,1.85-27.88,9.78-42.3,19.82-4.66,3.24-9.22,6.81-13.55,10.62-1.66,1.46-3.81,2.22-6.01,2.16-10.74-.32-19.6.67-27.9,6.54-6.47,4.58-11.55,11.6-15.17,20.96l1.46-.49-2.88,13.46c-.02.12-.05.23-.08.35Z"/>
        </g>
        <g>
          <circle cx="149.8" cy="88.89" r="4.14"/>
          <path d="M149.8,93.53c-2.56,0-4.64-2.08-4.64-4.64s2.08-4.64,4.64-4.64,4.64,2.08,4.64,4.64-2.08,4.64-4.64,4.64ZM149.8,85.25c-2.01,0-3.64,1.63-3.64,3.64s1.63,3.64,3.64,3.64,3.64-1.63,3.64-3.64-1.63-3.64-3.64-3.64Z"/>
        </g>
        <g>
          <circle cx="207.87" cy="80.09" r="4.14"/>
          <path d="M207.87,84.73c-2.56,0-4.64-2.08-4.64-4.64s2.08-4.64,4.64-4.64,4.64,2.08,4.64,4.64-2.08,4.64-4.64,4.64ZM207.87,76.45c-2.01,0-3.64,1.63-3.64,3.64s1.63,3.64,3.64,3.64,3.64-1.63,3.64-3.64-1.63-3.64-3.64-3.64Z"/>
        </g>
        <path d="M189.79,207.26c-.18,0-.35-.01-.53-.04-5.94-.79-18.29-2.44-24.28-13.16-4.06-7.28-2.96-15.01-1.95-18.97.55-2.14,2.73-3.43,4.87-2.88,2.14.55,3.43,2.73,2.88,4.87-.72,2.81-1.52,8.24,1.18,13.09,4.03,7.22,13.34,8.46,18.35,9.13,2.19.29,3.73,2.3,3.44,4.49-.27,2.01-1.99,3.47-3.96,3.47Z"/>
        <path d="M156.58,178.74c-3.51,0-6.1-.72-8.65-1.6-2.09-.72-3.21-3-2.49-5.09s2.99-3.2,5.08-2.48h.02c3.19,1.11,6.82,2.36,17.89-1.2,2.07-.67,3.53-1.11,4.64-1.45q2.95-.9,6.4-2.79l.53-.29c1.94-1.06,4.37-.36,5.43,1.58,1.06,1.94.36,4.37-1.58,5.43l-.53.29c-4.05,2.23-4.27,2.32-7.91,3.44-1.08.33-2.51.77-4.53,1.42-6.3,2.02-10.77,2.75-14.29,2.75Z"/>
      </g>
      <rect class="cls-1" width="301.27" height="343.18"/>
    </g>
  </g>
</svg>