<?xml version="1.0" encoding="UTF-8"?>
<svg id="Layer_2" data-name="Layer 2" xmlns="http://www.w3.org/2000/svg" viewBox="0 0 301.27 343.18">
  <defs>
    <style>
      .cls-1 {
        fill: none;
      }
    </style>
  </defs>
  <g id="Ebene_1" data-name="Ebene 1">
    <g>
      <g>
        <path d="M80.51,194.24c-8-3.97-16.81-6.28-26.16-6.86-2.2-.13-4.1,1.54-4.24,3.74-.14,2.21,1.54,4.1,3.74,4.24,8.29.52,16.06,2.55,23.11,6.04,21.76,10.79,30.05,32.07,35,44.79,14.36,36.88,5.41,73.24-1.21,91.62-.75,2.08.33,4.37,2.41,5.12.45.16.9.24,1.35.24,1.64,0,3.18-1.02,3.76-2.65,7-19.44,16.45-57.92,1.14-97.24-5.02-12.89-14.37-36.89-38.9-49.05Z"/>
        <path d="M238.84,176.65c-1.98.98-2.79,3.38-1.81,5.36,5.7,11.49,6.99,20.27,3.73,25.4-1.75,2.76-4.24,3.69-8.84,5.22-2.11.7-4.49,1.5-7.05,2.67-19.93,9.13-31.72,32.86-34.55,52.33-3.8,26.11,8.25,46.41,13.6,53.93.78,1.09,2.01,1.68,3.26,1.68.8,0,1.61-.24,2.32-.74,1.8-1.28,2.22-3.78.94-5.58-4.8-6.73-15.59-24.89-12.2-48.13,2.52-17.32,12.77-38.33,29.97-46.21,2.16-.99,4.24-1.69,6.25-2.36,4.77-1.59,9.69-3.24,13.05-8.52,4.92-7.73,3.8-18.91-3.31-33.25-.98-1.98-3.38-2.79-5.36-1.81Z"/>
        <path d="M300.69,72.14c-2.16-6.05-9.26-7.82-11.6-8.4-14.72-3.67-29.07,5.97-45.67,17.14-2.21,1.48-4.46,3-6.76,4.51-.13.08-.26.16-.38.25.19-.33.38-.64.57-.97,7.77-13.48,9.31-23.97,4.57-31.18-2.63-4.01-6.46-5.71-8.75-6.73-3.04-1.35-6.39-2.2-9.88-2.59,2.57-1.35,4.37-3.41,5.22-6.56.69-2.56.45-5.15-.73-7.74l13.56-4.73-.18-.53,2.73-.91c3.6-1.2,5.99-4.55,5.96-8.35-.03-3.8-2.49-7.11-6.12-8.25C228.07,2.37,212.52-.04,197.01,0c-12.03.01-28.37.03-45.55,7.87-6.58-1.6-14.59-2.81-24.78-1.66-20.25,2.28-34.31,12.06-49.19,22.41-4.46,3.1-8.83,6.47-13.02,10.05-10.75-.11-23.01,1.19-34.54,9.34-11.79,8.34-19.98,21.92-24.35,40.37-3.17,1.95-5.28,5.33-5.55,9.24-.23,3.34.93,6.49,3.08,8.81-.09,2.18.19,4.36,2.06,6.37l2.32,2.47,2.06-.04c.21.39.46.79.76,1.2l2.36,3.22,3.98-.15c.29-.01.56-.03.84-.04-1.94.95-3.73,2.17-5.55,4.03-7.19,7.37-11.29,21.42-4.72,32.93.69,1.21,7.13,11.86,20.09,13.14.83.08,1.65.12,2.48.12,10.37,0,20.2-6.38,24.99-16.46.95-2,.1-4.38-1.9-5.33-2-.95-4.38-.1-5.33,1.9-3.73,7.85-11.55,12.6-19.46,11.81-9.12-.9-13.74-8.81-13.93-9.15-4.92-8.61-.92-18.85,3.49-23.38,2.19-2.25,4.19-2.95,8.88-4.45,1.41-.45,3.01-.96,4.83-1.61,7.49-2.63,12.43-5.19,17.28-7.98,19.26-4.92,32.98-13.04,42.32-20.63,8.95-3.55,19.06-7.25,30.24-11.08-1.11,2.91-1.82,5.44-2.34,7.27h0c-2.41,8.54-5.41,19.17.69,27.01,3.59,4.61,9.56,7.13,17.24,7.3.26,0,.52,0,.79,0,5.33,0,11.43-1.14,16.49-3.11,10.46-4.06,16.62-11.72,20.65-18.44,1.29,4.91,3.86,8.22,7.46,9.49,2.28.81,4.22,1.36,5.92,1.71-.29.95-.24,2,.24,2.95.99,1.98,3.39,2.78,5.37,1.79,5.58-2.79,11.09-5.69,16.51-8.67,3.78-1.56,7.08-3.46,10.03-5.68,7.12-4.15,14.07-8.44,20.79-12.86,2.33-1.53,4.6-3.06,6.83-4.56,15.02-10.1,27.99-18.83,39.28-16.02,4.59,1.14,5.73,2.58,6,3.33.5,1.39-.24,4.42-6.55,10.94l-.18.18c-10.58,10.94-25.27,29.1-44.91,55.53-1.32,1.77-.95,4.28.82,5.6.72.53,1.55.79,2.38.79,1.22,0,2.43-.56,3.21-1.61,19.43-26.15,33.91-44.05,44.24-54.74l.17-.18c3.32-3.43,11.1-11.46,8.34-19.19ZM182.49,64.9c-.87-2.66-2.29-5.5-4.87-7.86-3.62-3.31-8.67-4.9-14.77-4.69l16.48-5.75c7.39-.3,14.14-.17,20.12-.06,1.43.03,2.8.05,4.15.07-2.4.89-4.73,1.99-6.9,3.32-5.91,3.6-10.63,8.95-14.21,14.97ZM120.85,74.98c-5.78,1.96-11.26,3.89-16.48,5.79.03-.03.06-.07.08-.1.4-.52.88-1.19,1.47-1.99,1.54-2.1,3.77-5.16,6.76-8.81l25.36-8.85c-6.22,4.31-10.41,9.64-13.29,14.74-1.04-.9-2.5-1.25-3.89-.77ZM151.19,114.33c-7.65,2.97-20.57,4.42-25.31-1.66-3.62-4.64-1.33-12.76.69-19.91l-3.85-1.09,3.85,1.09c1.67-5.92,5.15-18.23,17.08-25.87,11.94-7.65,24.13-8,28.58-3.93,2.38,2.18,3.05,5.5,3.64,8.43.69,3.43.53,6.69-.05,9.67-.24.9-.46,1.8-.65,2.69-1.06,3.63-2.63,6.74-3.8,9.06-3.44,6.8-8.64,17.07-20.17,21.54ZM181.95,98.36c-.36-3.43-.07-7.74.87-12.33.35-1.21.67-2.48.91-3.8,2.73-9.82,8.37-20.14,17.13-25.47,8.61-5.24,20.35-6.35,28.55-2.7,2.25,1.01,4.08,1.93,5.33,3.82,2.02,3.07,2.83,9.52-4.82,22.79-4.67,8.11-9.14,13.75-14.36,17.75-2.9,1.68-5.82,3.33-8.77,4.96-2.38.95-4.92,1.73-7.72,2.37-.85.19-1.62.42-2.3.62-2.82.82-4.85,1.41-11.9-1.07-1.05-.37-2.44-2.41-2.91-6.93Z"/>
        <path d="M146.05,92.3c-2.56,0-4.64,2.08-4.64,4.64s2.08,4.64,4.64,4.64,4.64-2.08,4.64-4.64-2.08-4.64-4.64-4.64Z"/>
        <path d="M198.58,97.19c2.56,0,4.64-2.08,4.64-4.64s-2.08-4.64-4.64-4.64-4.64,2.08-4.64,4.64,2.08,4.64,4.64,4.64Z"/>
        <path d="M198.71,186.69c-4.3-10.06-15.98-14.74-26.04-10.44-10.06,4.3-14.74,15.98-10.44,26.04,3.22,7.52,10.56,12.04,18.27,12.04,2.6,0,5.24-.51,7.77-1.6,10.06-4.3,14.74-15.98,10.44-26.04ZM185.91,207.22c-3.4,1.45-7.16,1.5-10.59.12-3.43-1.38-6.12-4.01-7.58-7.41-3-7.02.27-15.17,7.28-18.17,1.77-.76,3.61-1.11,5.42-1.11,5.38,0,10.5,3.15,12.75,8.4,3,7.02-.27,15.17-7.29,18.17Z"/>
      </g>
      <rect class="cls-1" width="301.27" height="343.18"/>
    </g>
  </g>
</svg>